<svg width="40" height="40" viewBox="0 0 40 40" fill="none" xmlns="http://www.w3.org/2000/svg">
<circle cx="20" cy="20" r="20" fill="white"/>
<path d="M27.7443 19.3784L21.9661 13.6001C21.8012 13.4351 21.5813 13.3446 21.3469 13.3446C21.1122 13.3446 20.8925 13.4353 20.7276 13.6001L20.203 14.1248C20.0382 14.2895 19.9474 14.5095 19.9474 14.744C19.9474 14.9784 20.0382 15.2058 20.203 15.3705L23.5739 18.7488H12.8644C12.3815 18.7488 12 19.1268 12 19.6098V20.3516C12 20.8346 12.3815 21.2508 12.8644 21.2508H23.6121L20.2031 24.6479C20.0383 24.8129 19.9475 25.0269 19.9475 25.2614C19.9475 25.4957 20.0383 25.7128 20.2031 25.8776L20.7277 26.4006C20.8927 26.5656 21.1124 26.6555 21.347 26.6555C21.5814 26.6555 21.8013 26.5644 21.9662 26.3995L27.7444 20.6213C27.9097 20.4558 28.0006 20.235 28 20.0002C28.0005 19.7646 27.9097 19.5436 27.7443 19.3784Z" fill="#359E00" fill-opacity="0.75"/>
</svg>
