<svg width="20" height="20" viewBox="0 0 20 20" fill="none" xmlns="http://www.w3.org/2000/svg">
<path d="M15.8356 14.1646C14.4605 14.1646 13.3418 15.2833 13.3418 16.6583C13.3418 18.0334 14.4605 19.1521 15.8356 19.1521C17.2106 19.1521 18.3293 18.0334 18.3293 16.6583C18.3293 15.2833 17.2106 14.1646 15.8356 14.1646ZM15.8356 17.6558C15.2854 17.6558 14.8381 17.2085 14.8381 16.6583C14.8381 16.1082 15.2854 15.6608 15.8356 15.6608C16.3857 15.6608 16.8331 16.1082 16.8331 16.6583C16.8331 17.2085 16.3857 17.6558 15.8356 17.6558Z" fill="white"/>
<path d="M19.841 4.5264C19.6994 4.34511 19.4821 4.23937 19.252 4.23937H4.618L3.94467 1.42217C3.86412 1.08552 3.56311 0.847866 3.21697 0.847866H0.748129C0.334924 0.847827 0 1.18275 0 1.59596C0 2.00916 0.334924 2.34409 0.748129 2.34409H2.62646L5.05788 12.5177C5.13843 12.8546 5.43945 13.092 5.78558 13.092H17.4315C17.7755 13.092 18.0752 12.8576 18.1577 12.5239L19.9782 5.16726C20.0333 4.94386 19.9827 4.70769 19.841 4.5264ZM16.8462 11.5958H6.37609L4.97558 5.73563H18.2961L16.8462 11.5958Z" fill="white"/>
<path d="M6.78307 14.1646C5.40799 14.1646 4.28931 15.2833 4.28931 16.6583C4.28931 18.0334 5.40802 19.1521 6.78307 19.1521C8.15812 19.1521 9.27684 18.0334 9.27684 16.6583C9.27684 15.2833 8.15812 14.1646 6.78307 14.1646ZM6.78307 17.6558C6.23295 17.6558 5.78557 17.2085 5.78557 16.6583C5.78557 16.1082 6.23295 15.6608 6.78307 15.6608C7.33319 15.6608 7.78058 16.1082 7.78058 16.6583C7.78058 17.2085 7.33319 17.6558 6.78307 17.6558Z" fill="white"/>
</svg>
