<svg width="16" height="14" viewBox="0 0 16 14" fill="none" xmlns="http://www.w3.org/2000/svg">
<path d="M15.7443 6.37835L9.96609 0.600052C9.80115 0.43511 9.58132 0.344574 9.34691 0.344574C9.11225 0.344574 8.89254 0.43524 8.7276 0.600052L8.20299 1.1248C8.03818 1.28948 7.94738 1.50944 7.94738 1.74398C7.94738 1.97838 8.03818 2.20576 8.20299 2.37044L11.5739 5.74876H0.864383C0.381525 5.74876 0 6.12677 0 6.60976V7.35161C0 7.83459 0.381525 8.25072 0.864383 8.25072H11.6121L8.20312 11.6479C8.03831 11.8128 7.94751 12.0268 7.94751 12.2614C7.94751 12.4956 8.03831 12.7127 8.20312 12.8775L8.72773 13.4006C8.89267 13.5655 9.11238 13.6554 9.34704 13.6554C9.58145 13.6554 9.80128 13.5644 9.96622 13.3994L15.7444 7.62126C15.9097 7.4558 16.0006 7.23493 16 7.00013C16.0005 6.76455 15.9097 6.54355 15.7443 6.37835Z" fill="#57BA41"/>
</svg>
